<?xml version="1.0" encoding="UTF-8"?>
<svg xmlns="http://www.w3.org/2000/svg" viewBox="0 0 150 150">
  <defs>
    <style>
      .cls-1 {
        fill: none;
      }
    </style>
  </defs>
  <path class="cls-1" d="M0,0H150V150H0V0Z"/>
  <path id="mark" d="M59.95,93.59l45.05-33.3c2.21-1.63,5.37-1,6.42,1.54,5.54,13.37,3.06,29.44-7.96,40.48-11.02,11.03-26.35,13.45-40.37,7.94l-15.31,7.1c21.96,15.03,48.63,11.31,65.29-5.38,13.22-13.23,17.31-31.27,13.48-47.54l.03,.03c-5.55-23.9,1.36-33.45,15.53-52.98,.33-.46,.67-.93,1.01-1.4l-18.64,18.66v-.06L59.94,93.6"/>
  <path id="mark-2" data-name="mark" d="M50.65,101.68c-15.76-15.07-13.04-38.4,.4-51.86,9.94-9.96,26.24-14.02,40.46-8.05l15.28-7.06c-2.75-1.99-6.28-4.13-10.33-5.64-18.29-7.54-40.2-3.79-55.07,11.09-14.3,14.32-18.8,36.34-11.08,55.13,5.77,14.04-3.69,23.98-13.22,34-3.38,3.55-6.76,7.11-9.49,10.87l43.03-38.48"/>
</svg>