<svg viewBox="0 0 57 57" fill="none" xmlns="http://www.w3.org/2000/svg">
  <g clip-path="url(#a)">
    <path d="M27.07 52.131c-1-.785-9.82-7.774-12.06-10.787-2.1-2.817-4.68-6.272-1.01-10.866 2.63-3.289 11.49-4.162 15.81-4.162s10.45.726 13.15 4.191c3.59 4.614 1.06 8.02-.98 10.758-2.29 3.082-11.11 10.071-12.11 10.866l-1.4 1.1z" fill="var(--icons-accent-color)"/>
    <path d="M39.75 36.426c-2.04 2.336-11.29 8.53-11.29 8.53s-9.25-6.194-11.3-8.53-3.17-3.583-1.04-5.84c2.51-2.67 20.64-4.388 24.67 0 2.1 2.287 1 3.504-1.04 5.84" fill="#3C4F72"/>
    <path d="M56.91 57v-7.745c0-4.122-2.52-7.843-6.4-9.443L39.14 35.13a4.205 4.205 0 0 1-2.63-3.887v-5.575h-16.1v5.575c0 1.698-1.04 3.23-2.63 3.887L6.41 39.812c-3.87 1.59-6.4 5.31-6.4 9.443V57z" fill="#E2BEA3"/>
    <path d="M20.48 28.46c.2.385.433.764.708 1.117l1.908 2.243c.852 1.091 2.455 1.814 3.838 1.952l2.14.214c1.392.14 3.102-.262 4.16-1.153l2.33-1.82a7 7 0 0 0 .922-.953l.509-4.902-16.007-1.6z" fill="#DCA387"/>
    <path d="M30.456 31.41c1.459 0 3.189-.501 4.19-1.374l2.219-1.798c1.146-1.012 1.865-2.3 2.053-3.683l.698-5.212c.136-1.038.209-2.084.209-3.12v-5.3c0-4.408-4.305-7.978-9.62-7.978h-1.76c-5.316 0-9.62 3.57-9.62 7.978v5.3c0 1.045.073 2.082.208 3.12l.698 5.212c.188 1.383.907 2.671 2.053 3.683l2.22 1.798c1 .881 2.741 1.374 4.19 1.374z" fill="#F0C8AA"/>
    <path d="M38.435 6.704a1.203 1.203 0 0 0-1.65.383c.69-1.09.61-2.071.05-2.915a9.15 9.15 0 0 0-3.88-2.405l-.21-.059a9.5 9.5 0 0 0-2.61-.373h-1.69c-5.1 0-9.23 4.054-9.23 9.06v6.017l.2 1.119c1.06-2.729 1.36-4.388 1.45-5.487a3.28 3.28 0 0 1 2.09-2.788 4.42 4.42 0 0 1 2.89-.127l.68.206c1.93.579 3.63.57 5.54 0l.68-.206a4.42 4.42 0 0 1 2.89.127 3.28 3.28 0 0 1 2.09 2.788c0 1.404.17 2.61 1.45 5.487l.2-1.12v-6.016c0-1.257-.26-2.444-.73-3.534-.07-.049-.13-.098-.2-.147z" fill="#F0B496"/>
    <path d="M38.145 3.987S33.565 0 29.413 0a13.45 13.45 0 0 0-8.935 3.38c-3.338 2.95-2.524 8.712-1.965 14.972l.937.648.59-2.273c.417-1.615.692-3.25.824-4.914l.061-.798a3.33 3.33 0 0 1 2.127-2.83 4.5 4.5 0 0 1 2.941-.13l.692.209c1.965.588 3.695.578 5.638 0l.692-.21a4.5 4.5 0 0 1 2.941.13 3.33 3.33 0 0 1 2.127 2.831l.062.798q.198 2.494.824 4.914l.59 2.273.926-.658c.458-5.722 1.395-11.494-1.516-13.358-.377-.356-.825-.997-.825-.997" fill="#000"/>
    <path d="m19.32 17.855-.53-.825a2.36 2.36 0 0 0-1.57-1.05c-.94-.177-1.76.648-1.57 1.57l.64 3.142c.27 1.344 1.29 2.424 2.64 2.807l.94.265-.54-5.89zM39 24l.885-.272c1.262-.382 2.223-1.499 2.486-2.877l.603-3.219c.179-.946-.593-1.78-1.478-1.61a2.23 2.23 0 0 0-1.479 1.077l-.5.845-.508 6.036z" fill="#F0B496"/>
    <path d="M56.91 49.255c0-4.122-2.52-7.843-6.4-9.443L40.42 35.66c-.21.246-.43.501-.67.766-2.04 2.336-11.29 8.53-11.29 8.53s-9.25-6.194-11.3-8.53c-.24-.265-.46-.52-.67-.766L6.4 39.813c-3.87 1.59-6.4 5.31-6.4 9.442V57h56.89v-7.745z" fill="var(--icons-accent-color)"/>
    <path d="M42.68 36.681c-.34.56-.7 1.1-1.04 1.61-2.23 3.338-10.84 10.915-11.81 11.77l-1.36 1.197-1.36-1.198c-.97-.854-9.56-8.412-11.76-11.69-.36-.55-.75-1.1-1.1-1.698.35.451.74.873 1.1 1.295 2.2 2.503 10.79 8.295 11.76 8.933l1.36.913 1.36-.913c.97-.648 9.57-6.44 11.81-8.992.34-.392.7-.795 1.04-1.236z" fill="var(--icons-accent-color)"/>
  </g>
  <defs>
    <clipPath id="a">
      <path fill="#fff" d="M0 0h57v57H0z"/>
    </clipPath>
  </defs>
</svg>
