<svg width="26" height="26" viewBox="0 0 26 26" fill="none" xmlns="http://www.w3.org/2000/svg">
<path d="M13.5538 25.4131C4.98507 25.4131 2.69565 16.4808 3.73052 10.6283C3.77556 10.3736 4.10945 10.3002 4.25494 10.5141C4.70547 11.1763 5.10639 12.1328 5.77066 12.0498C6.76907 11.9249 7.46076 3.115 13.378 0.636108C13.5658 0.557448 13.7623 0.706694 13.7417 0.90921C13.4491 3.78003 15.1728 7.89001 18.2265 7.89001C19.977 7.89001 21.1747 6.49291 21.7732 5.08983C21.955 4.66362 22.5778 4.71735 22.682 5.16884C23.75 9.7941 26.6049 25.4131 13.5538 25.4131Z" fill="#FF8F1F"/>
<path d="M10.5502 16.7996C10.7517 16.6303 11.0576 16.7465 11.1034 17.0057C11.2104 17.6122 11.5625 18.6545 12.7171 18.6545C14.1061 18.6545 15.0487 14.8325 15.2959 13.7084C15.3366 13.5235 15.5168 13.3979 15.7024 13.4356C19.1735 14.1414 20.8612 25.4128 13.2292 25.4128C7.67308 25.4128 8.93179 18.1593 10.5502 16.7996ZM20.0352 4.59321C20.1575 3.63639 18.4109 6.2534 18.4109 6.2534C18.4109 6.2534 19.7425 6.88237 20.0352 4.59321ZM2.43575 18.8628C2.47257 18.4555 1.94856 17.3649 1.85578 17.7967C1.63371 18.8298 2.39894 19.2702 2.43575 18.8628Z" fill="#FFB636"/>
<path d="M16.411 17.7023C16.2809 17.1595 15.8141 18.4204 15.8727 18.934C15.9314 19.4475 16.7224 19.0011 16.411 17.7023Z" fill="#FFD469"/>
</svg>
