<svg xmlns="http://www.w3.org/2000/svg"><path d="M5 6.696h110V44H5z" fill="#fff" fill-opacity="0"/><path d="M48.177 26.634c3.717-.8 3.2-5.246 3.1-6.218-.183-1.5-1.945-4.116-4.335-3.907-3 .268-3.45 4.616-3.45 4.616-.408 2.013.973 6.3 4.684 5.5m6.903-7.455c2.052 0 3.7-2.365 3.7-5.286s-1.66-5.282-3.7-5.282-3.716 2.36-3.716 5.282 1.662 5.286 3.716 5.286m8.846.348c2.747.36 4.507-2.57 4.86-4.8.36-2.217-1.415-4.796-3.355-5.24-1.95-.448-4.382 2.672-4.6 4.707-.267 2.5.353 4.97 3.097 5.323m10.878 3.73c0-1.062-.88-4.263-4.153-4.263-3.28 0-3.714 3.02-3.714 5.155 0 2.037.17 4.878 4.244 4.8s3.624-4.613 3.624-5.682M70.65 32.58s-4.246-3.285-6.725-6.836c-3.365-5.236-8.14-3.104-9.736-.445-1.6 2.666-4.065 4.35-4.42 4.796-.357.438-5.128 3.016-4.07 7.724s4.782 4.615 4.782 4.615 2.742.268 5.922-.443a12.62 12.62 0 0 1 5.928.174s7.433 2.493 9.465-2.304-1.147-7.28-1.147-7.28" fill="#2319dc"/><path d="M55.74 28v3.16h-2.575s-2.573.213-3.474 3.13c-.314 1.947.277 3.094.38 3.34s.936 1.67 3.024 2.087h4.83V28.034L55.74 28zm-.04 9.8h-1.946s-1.356-.07-1.77-1.632c-.213-.692.032-1.5.14-1.805.098-.315.554-1.042 1.492-1.322H55.7v4.76zm3.4-6.357v6.15s.1 1.53 2.26 2.088h5.56v-8.24h-2.4v6.186h-2.3s-.732-.106-.87-.695v-5.527l-2.26.036z" fill="#fff"/><path d="M93.42 27.405v-2.593H76.34l-.022 2.63h7.343l-.7 1.574h-6.245V42.03H91.56c1.55 0 1.413-1.567 1.413-1.567V29.017H86.72l.55-1.6 6.15-.001zM90.104 39.25s-.18.432-.434.432h-9.844v-3.035h10.28l-.001 2.603zm-.017-5.1H79.825v-2.846h10.262v2.846zm22.853-9.27h-6.702v-1.313h-3.143v1.248h-7.688V42h2.766V27.03h14.767v-2.15zm-1.808 3.557v-.995h-2.702v.995h-5.56v-.96h-2.56v.96h-1.73l.034 1.947h1.695v3.656h9.35c1.297 0 1.47-1.37 1.47-1.37v-2.288h1.98v-1.947h-1.978v.001zm-2.702 3.276s-.24.443-.55.443h-5.04v-1.8h5.587v1.368zm-9.47 4.992l4.304 2.496c-.34.375-1.8.85-1.8.85h-2.87v1.92h3.896c1.163-.238 3.314-1.33 3.314-1.33.9.818 2.602 1.158 2.602 1.158h4.44v-1.914H109.5c-.902-.135-1.712-.65-1.712-.65l5.06-2.906v-1.573H98.962l-.001 1.95zm8.955-.032l-2.462 1.298-2.256-1.298h4.718zm-69.58-9.056h3.728v-3.285h-3.728v3.285zm0 14.315h3.728V29.048h-3.728v12.884zM32.273 29.06l-7.954-.02v2.7h6.975s1.66.4 1.66 1.463v.954h-6.312s-2.482.23-3.28 3.194c-.137 1.4.046 2.07.14 2.324s.817 1.9 2.98 2.298h10.05v-9.23s-.48-3.167-4.26-3.7m.68 10.37h-5.08c-.683-.275-.9-.73-.958-.845s-.205-.52-.02-.932c.4-.795 1.092-.98 1.092-.98h4.966v2.756zm-10.4-2c.1-3.137-2.705-4.222-2.705-4.222 2.382-1.246 2.08-4.387 2.08-4.387-.258-4.806-6.13-4.582-6.13-4.582H6.713v17.913H16.96c6.017-.024 5.584-4.722 5.584-4.722m-5.8 1.392v.008h-6.138V34.95h6.108l.207.042s1.162.212 1.583 1.258c0 0 .244.982-.283 1.712 0 0-.387.674-1.477.846m1.3-8.305s-.412.758-1.507.922h-5.932v-3.707h5.907s1.284-.06 1.708.96c0 0 .255 1.084-.176 1.825" fill="#e10601"/></svg>