<svg xmlns="http://www.w3.org/2000/svg" width="64" height="64"><defs><linearGradient id="A" x1="-.031" y1="44.365" x2="26.596" y2="44.365" gradientUnits="userSpaceOnUse"><stop offset="0" stop-color="#f1562b"/><stop offset=".3" stop-color="#f1542b"/><stop offset=".41" stop-color="#f04d2a"/><stop offset=".49" stop-color="#ef4229"/><stop offset=".5" stop-color="#ef4029"/><stop offset=".56" stop-color="#e83e28"/><stop offset=".67" stop-color="#e13c26"/><stop offset="1" stop-color="#df3c26"/></linearGradient></defs><path d="M26.605 38.85l-.964-2.617.67-1.502c.086-.194.044-.42-.105-.572l-1.822-1.842a2.94 2.94 0 0 0-3.066-.712l-.5.177-2.783-3.016-4.752-.026-4.752.037-2.78 3.04-.495-.175a2.95 2.95 0 0 0-3.086.718L.304 34.237a.41.41 0 0 0-.083.456l.7 1.56-.96 2.615 3.447 13.107c.326 1.238 1.075 2.323 2.118 3.066l6.817 4.62a1.51 1.51 0 0 0 1.886 0l6.813-4.627c1.042-.743 1.8-1.828 2.115-3.066l2.812-10.752z" fill="url(#A)" transform="matrix(2.048177 0 0 2.048177 4.795481 -58.865395)"/><path d="M33.595 39.673a8.26 8.26 0 0 0-1.139-.413h-.686a8.26 8.26 0 0 0-1.139.413l-1.727.718-1.95.897-3.176 1.655c-.235.076-.4.288-.417.535s.118.48.34.586L26.458 46a21.86 21.86 0 0 1 1.695 1.346l.776.668 1.624 1.422.736.65a1.27 1.27 0 0 0 1.62 0l3.174-2.773 1.7-1.346 2.758-1.974a.6.6 0 0 0-.085-1.117l-3.17-1.6-1.96-.897zm19.555-17.77l.1-.287a7.73 7.73 0 0 0-.072-1.148c-.267-.68-.6-1.326-1.023-1.93l-1.794-2.633-1.278-1.736-2.404-3c-.22-.293-.458-.572-.713-.834h-.05l-1.068.197-5.284 1.018c-.535.025-1.07-.053-1.574-.23l-2.902-.937-2.077-.574a8.68 8.68 0 0 0-1.834 0l-2.077.58-2.902.942a4.21 4.21 0 0 1-1.574.23l-5.278-1-1.068-.197h-.05c-.256.262-.494.54-.713.834l-2.4 3a29.33 29.33 0 0 0-1.278 1.736l-1.794 2.633-.848 1.413c-.154.543-.235 1.104-.242 1.67l.1.287c.043.184.1.366.166.543l1.417 1.628 6.28 6.674a1.79 1.79 0 0 1 .318 1.794L18.178 35a3.16 3.16 0 0 0-.049 2.005l.206.565a5.45 5.45 0 0 0 1.673 2.346l.987.803c.52.376 1.2.457 1.794.215l3.508-1.673a8.79 8.79 0 0 0 1.794-1.19l2.808-2.534a1.12 1.12 0 0 0 .37-.795 1.13 1.13 0 0 0-.312-.82l-6.338-4.27a1.23 1.23 0 0 1-.386-1.556l2.458-4.62a2.4 2.4 0 0 0 .121-1.834 2.8 2.8 0 0 0-1.395-1.265l-7.706-2.9c-.556-.2-.525-.45.063-.484l4.526-.45a7.02 7.02 0 0 1 2.113.188l3.938 1.1c.578.174.94.75.843 1.346l-1.547 8.45a4.37 4.37 0 0 0-.076 1.426c.063.202.592.45 1.17.592l2.4.5a5.83 5.83 0 0 0 2.108 0l2.157-.5c.58-.13 1.103-.404 1.17-.606a4.38 4.38 0 0 0-.08-1.426l-1.556-8.45a1.21 1.21 0 0 1 .843-1.346l3.938-1.103a6.98 6.98 0 0 1 2.113-.188l4.526.422c.592.054.62.274.067.484l-7.7 2.92a2.76 2.76 0 0 0-1.395 1.265 2.41 2.41 0 0 0 .12 1.834l2.462 4.62a1.23 1.23 0 0 1-.386 1.556l-6.333 4.28a1.13 1.13 0 0 0 .058 1.615l2.812 2.534a8.89 8.89 0 0 0 1.794 1.184l3.508 1.67c.596.24 1.274.158 1.794-.22l.987-.807a5.44 5.44 0 0 0 1.673-2.35l.206-.565a3.16 3.16 0 0 0-.049-2.005l-1.032-2.436a1.8 1.8 0 0 1 .318-1.794l6.28-6.683 1.413-1.628a4.36 4.36 0 0 0 .193-.53z" fill="#fff"/></svg>