<?xml version="1.0" encoding="UTF-8"?>
<svg version="1.1" id="Layer_1" xmlns="http://www.w3.org/2000/svg" preserveAspectRatio="xMidYMid" xmlns:xlink="http://www.w3.org/1999/xlink" x="0px" y="0px" viewBox="0 0 250 200" style="enable-background:new 0 0 250 200;">

<style type="text/css">

	.st0{fill:#DE5833;}

	.st1{fill:#FFFFFF;}

	.st2{fill-rule:evenodd;clip-rule:evenodd;fill:#FED30A;}

	.st3{fill:#2D4F8D;}

	.st4{fill:#D5D7D8;}

	.st5{fill:#67BD47;}

	.st6{fill:#43A347;}

	.st7{fill:#4C4C4C;}

</style>

<g>

	<g>

		<g>

			<circle class="st0" cx="127" cy="79" r="60"/>

			<path class="st1" d="M177.8,57.5C175,50.9,171,45,166,40c-5.1-5.1-11-9-17.5-11.8c-6.8-2.9-14-4.3-21.5-4.3      c-7.4,0-14.7,1.5-21.5,4.3C98.9,30.9,93,34.9,88,40c-5.1,5.1-9,11-11.8,17.5c-2.9,6.8-4.3,14-4.3,21.5s1.5,14.7,4.3,21.5      c2.8,6.6,6.8,12.5,11.8,17.5c5.1,5.1,11,9,17.5,11.8c6.8,2.9,14,4.3,21.5,4.3c7.4,0,14.7-1.5,21.5-4.3C155,127,160.9,123,166,118      c5.1-5.1,9-11,11.8-17.5c2.9-6.8,4.3-14,4.3-21.5S180.7,64.3,177.8,57.5z M139,128.5c-3.2-5.4-11.6-20.5-11.6-31.7      c0-25.8,17.3-3.7,17.3-24.3c0-4.9-2.4-22.1-17.4-25.7c-3.7-4.9-12.4-9.6-26.2-7.7c0,0,2.3,0.7,4.9,2c0,0-5,0.7-5.2,4.1      c0,0,9.9-0.5,15.5,1.3C103.4,48.2,96.8,55,98,67.3c1.7,17.5,9.1,48.7,11.7,59.6C90.1,119.9,76,101.1,76,79c0-28.1,22.8-51,51-51      s51,22.8,51,51C177.9,103,161.3,123.1,139,128.5z"/>

			<path id="Beak_2_" class="st2" d="M124.2,87.3c0-6.6,9-8.7,12.4-8.7c9.2,0,22.2-5.9,25.4-5.8c3.3,0.1,5.4,1.4,5.4,2.9      c0,2.2-18.4,10.5-25.5,9.8c-6.8-0.6-8.4,0.1-8.4,2.9c0,2.4,4.9,4.6,10.3,4.6c8.1,0,16-3.6,18.4-1.9c2.1,1.5-5.5,6.9-14.2,6.9      C139.3,98,124.2,93.9,124.2,87.3z"/>

			<g>

				<path class="st3" d="M140.2,59.3c-2.4-3.1-6.7-3.2-8.2,0.4C134.3,57.9,137.1,57.5,140.2,59.3z"/>

				<path class="st3" d="M113.5,59.4c-3.3-2-8.8-2.2-8.5,4.1C106.6,59.6,108.8,58.9,113.5,59.4z"/>

				<path class="st3" d="M138.2,65.2c-1.8,0-3.3,1.5-3.3,3.3c0,1.8,1.5,3.3,3.3,3.3s3.3-1.5,3.3-3.3C141.5,66.7,140,65.2,138.2,65.2       z M139.4,68.3c-0.5,0-1-0.4-1-1c0-0.5,0.4-1,1-1s1,0.4,1,1C140.3,67.8,139.9,68.3,139.4,68.3z"/>

				<path class="st3" d="M112.6,67c-2.1,0-3.8,1.7-3.8,3.8c0,2.1,1.7,3.8,3.8,3.8c2.1,0,3.8-1.7,3.8-3.8       C116.4,68.7,114.7,67,112.6,67z M114,70.5c-0.6,0-1.1-0.5-1.1-1.1c0-0.6,0.5-1.1,1.1-1.1s1.1,0.5,1.1,1.1       C115.1,70,114.6,70.5,114,70.5z"/>

			</g>

			<g>

				<path class="st4" d="M104.3,50.8c-4.8,3.5-7,8.9-6.3,16.5c1.7,17.5,9.1,48.8,11.7,59.7c0.9,0.3,1.8,0.6,2.7,0.9       c-1.6-6.6-9.3-38.8-12.7-63.5C98.8,57.8,101.4,53.9,104.3,50.8z"/>

				<path class="st4" d="M116.2,46.5c0.4,0,0.7-0.1,0.7-0.1c-5.2-2.5-13.4-2.6-15.6-2.6c-0.2,0.4-0.4,0.9-0.4,1.4       C100.8,45.3,110.5,44.7,116.2,46.5z"/>

				<path class="st4" d="M106.8,41.1c-1.6-1.1-2.9-1.8-3.7-2.2c-0.7,0.1-1.3,0.1-2,0.2c0,0,2.3,0.7,4.9,2c0,0-0.1,0-0.2,0       C106.5,41.1,106.8,41.1,106.8,41.1z"/>

			</g>

			<g>

				<path class="st5" d="M147.1,107.6c-1.7-0.4-8.3,4.3-10.8,6.1c-0.1-0.5-0.2-0.9-0.3-1.1c-0.3-1-6.7-0.4-8.2,1.2       c-4-1.9-12-5.6-12.1-3.3c-0.3,3,0,15.5,1.6,16.4c1.2,0.7,8-3,11.4-4.9c0,0,0,0,0.1,0c2.1,0.5,6,0,7.4-0.9       c0.2-0.1,0.3-0.3,0.4-0.5c3.1,1.2,9.8,3.6,11.2,3.1C149.6,123.2,149.2,108.1,147.1,107.6z"/>

				<path class="st6" d="M128.8,122c-2.1-0.4-1.4-2.5-1.4-7.4c0,0,0,0,0,0c-0.5,0.3-0.9,0.7-0.9,1.1c0,4.9-0.8,7.1,1.4,7.4       c2.1,0.5,6,0,7.6-0.9c0.3-0.2,0.4-0.5,0.5-1C134.5,122.1,130.8,122.5,128.8,122z"/>

			</g>

		</g>

		<g>

			<g>

				<path class="st7" d="M24.5,180.6V156h8.9c8.5,0,12.4,6.2,12.4,12c0,6.3-3.8,12.6-12.4,12.6H24.5L24.5,180.6z M27.3,177.7h6.1       c6.6,0,9.5-4.9,9.5-9.8c0-4.5-3-9.3-9.5-9.3h-6.1V177.7L27.3,177.7z"/>

			</g>

			<g>

				<path class="st7" d="M57,180.9c-4.6,0-7.5-3.1-7.5-8v-9.6h2.7v9.5c0,3.5,2,5.6,5.4,5.6c3.2,0,5.5-2.5,5.5-5.8v-9.3h2.7v17.3       h-2.4l-0.2-3l-0.4,0.5C61.3,179.9,59.4,180.8,57,180.9z"/>

			</g>

			<g>

				<path class="st7" d="M78.7,180.9c-4.5,0-9-2.8-9-8.9c0-5.4,3.6-8.9,9-8.9c2.4,0,4.4,0.8,6.2,2.5l-1.7,1.7       c-1.2-1.1-2.8-1.7-4.4-1.7c-3.8,0-6.4,2.6-6.4,6.4c0,4.4,3.2,6.4,6.4,6.4c1.8,0,3.4-0.6,4.6-1.8l1.7,1.7       C83.3,180,81.1,180.9,78.7,180.9z"/>

			</g>

			<g>

				<polygon class="st7" points="99.6,180.6 91.1,172.1 91.1,180.6 88.5,180.6 88.5,156 91.1,156 91.1,170.9 98.5,163.3 102,163.3        93.8,171.4 103,180.5 103,180.6     "/>

			</g>

			<g>

				<path class="st7" d="M106.2,180.6V156h8.9c8.5,0,12.4,6.2,12.4,12c0,6.3-3.8,12.6-12.4,12.6H106.2L106.2,180.6z M109.1,177.7       h6.1c6.6,0,9.5-4.9,9.5-9.8c0-4.5-3-9.3-9.5-9.3h-6.1V177.7z"/>

			</g>

			<g>

				<path class="st7" d="M138.7,180.9c-4.6,0-7.5-3.1-7.5-8v-9.6h2.7v9.5c0,3.5,2,5.6,5.4,5.6c3.2,0,5.5-2.5,5.5-5.8v-9.3h2.7v17.3       h-2.4l-0.1-3l-0.4,0.5C143.1,179.9,141.1,180.8,138.7,180.9z"/>

			</g>

			<g>

				<path class="st7" d="M160.4,180.9c-4.5,0-9-2.8-9-8.9c0-5.4,3.6-8.9,9-8.9c2.4,0,4.4,0.8,6.2,2.5l-1.7,1.7       c-1.2-1.1-2.8-1.7-4.4-1.7c-3.8,0-6.4,2.6-6.4,6.4c0,4.4,3.2,6.4,6.4,6.4c1.8,0,3.4-0.6,4.6-1.8l1.7,1.7l-0.1,0.1l0,0       C165,180.1,162.9,180.9,160.4,180.9z"/>

			</g>

			<g>

				<polygon class="st7" points="181.3,180.6 172.9,172.1 172.9,180.6 170.3,180.6 170.3,156 172.9,156 172.9,170.9 180.3,163.3        183.7,163.3 175.6,171.4 184.7,180.5 184.7,180.6     "/>

			</g>

			<g>

				<path class="st7" d="M198.6,181c-9.5,0-12.8-6.8-12.8-12.5c0-3.8,1.3-7.1,3.6-9.5c2.3-2.3,5.5-3.5,9.2-3.5       c3.4,0,6.5,1.3,8.9,3.6l-1.6,1.9c-1.9-1.8-4.7-2.9-7.3-2.9c-6.9,0-10,5.4-10,10.4c0,4.9,3.1,9.9,10.1,9.9c2.5,0,4.9-0.9,6.8-2.5       l0.1-0.1v-6.1h-7.7v-2.5h10.3v9.6C205.5,179.7,202.4,181,198.6,181z"/>

			</g>

			<g>

				<path class="st7" d="M220.4,180.9c-5.2,0-8.9-3.7-8.9-8.9s3.8-9.1,8.9-9.1c5.3,0,9,3.7,9,9.1       C229.3,177.1,225.6,180.9,220.4,180.9z M220.4,165.3c-3.7,0-6.3,2.7-6.3,6.6c0,3.7,2.6,6.4,6.3,6.4s6.3-2.6,6.4-6.4       C226.7,168.1,224.1,165.3,220.4,165.3z"/>

			</g>

		</g>

	</g>

	<g>

		<path class="st7" d="M230.9,181.2L230.9,181.2c0.2-0.1,0.3-0.2,0.3-0.4c0-0.2-0.1-0.3-0.2-0.4c-0.1-0.1-0.3-0.1-0.6-0.1     c-0.3,0-0.5,0-0.6,0.1v1.6h0.4v-0.7h0.2c0.2,0,0.3,0.1,0.3,0.3c0.1,0.2,0.1,0.3,0.1,0.4h0.4c0-0.1-0.1-0.2-0.1-0.4     C231.1,181.4,231,181.3,230.9,181.2z M230.4,181.1h-0.2v-0.5c0,0,0.1,0,0.2,0c0.2,0,0.3,0.1,0.3,0.2     C230.8,181,230.7,181.1,230.4,181.1z"/>

		<path class="st7" d="M230.5,179.5c-0.9,0-1.7,0.7-1.7,1.6c0,0.9,0.7,1.7,1.7,1.7c0.9,0,1.7-0.7,1.7-1.7     C232.2,180.2,231.5,179.5,230.5,179.5z M230.5,182.5c-0.7,0-1.3-0.6-1.3-1.3c0-0.7,0.5-1.3,1.3-1.3c0.7,0,1.3,0.6,1.3,1.3     C231.8,181.9,231.2,182.5,230.5,182.5z"/>

	</g>

</g>

</svg>