<?xml version="1.0" encoding="utf-8"?>
<!-- Generator: Adobe Illustrator 27.2.0, SVG Export Plug-In . SVG Version: 6.00 Build 0)  -->
<svg version="1.1" id="Layer_1" xmlns="http://www.w3.org/2000/svg" xmlns:xlink="http://www.w3.org/1999/xlink" x="0px" y="0px"
	 viewBox="0 0 1232 434.1" style="enable-background:new 0 0 1232 434.1;" xml:space="preserve">
<g>
	<path d="M915.4,194.4c-1.1-59.3-49.5-107.1-109.2-107.1c-4,0-8,0.2-12,0.7c-18.2,2.4-34.6,10.4-47.7,22.1l0.2-22.8l0,0v-0.8h-51
		v254.8h51v-56.6v-82.6v-4.2c0-0.2,0-0.3,0-0.5l0-1.3c0.4-32.5,26.9-58.7,59.5-58.7c12.6,0,24.3,3.9,34,10.6
		c15.7,10.9,24.9,28.9,25.3,48c0.1,3.5,0.1,8,0.1,13.8v75v57.2h49.7L915.4,194.4L915.4,194.4z"/>
	<polygon points="667,302.3 667,302.4 667,302.4 	"/>
	<path d="M615.5,0c-16.8,0-30.4,13.6-30.4,30.4c0,16.8,13.6,30.4,30.4,30.4s30.4-13.6,30.4-30.4C645.9,13.6,632.3,0,615.5,0z"/>
	<path d="M536.1,194.4c-1.1-59.3-49.5-107.1-109.2-107.1c-0.3,0-0.7,0-1,0c-22.5,0.4-42.9,10.5-58.6,26.5l0-3.8c0,0-0.1,0-0.1,0.1
		l0.2-23.3l0,0V0h-51v341.3h51v-56.6v-82.6v-4.2c0-0.2,0-0.3,0-0.5l0-1.3c0.4-32.5,26.9-58.7,59.5-58.7c12.6,0,24.3,3.9,34,10.6
		c15.7,10.9,24.9,28.9,25.3,48c0.1,3.5,0.1,8,0.1,13.8v75v56.6h49.7L536.1,194.4L536.1,194.4z"/>
	<path d="M1207.3,281.7V1.4h-52.4v113.8c0,0-0.1,0-0.1-0.1l0,5.6c0,0,0,0,0,0l0,1.8c-17.9-17.3-40.4-29.3-65.3-33.4
		c-6-0.9-12.1-1.4-18.3-1.4l0,0c-62,1.8-115.7,48-124.7,111.4c-4.9,34.3,3.9,68.5,24.7,96.2c20.8,27.7,51.2,45.7,85.4,50.6
		c34.3,4.9,68.5-3.9,96.2-24.7c3.4-2.5,6.6-5.2,9.7-8l36.5,29.5l32.8-40.8L1207.3,281.7z M1074.3,299.5c-35.9,0-66.4-23.2-77.3-55.5
		c-2.8-8.2-4.3-17-4.3-26.2c0-37.6,25.5-69.3,60.2-78.6c6.8-1.9,14-2.8,21.4-2.8c14,0,27.1,3.5,38.6,9.7
		c10.4,5.5,19.5,13.2,26.7,22.9c8.3,11,13.5,23.7,15.3,37v0c0.6,3.9,0.9,7.8,0.9,11.9C1155.8,263,1119.3,299.5,1074.3,299.5z"/>
	<path d="M24.7,153.8v280.3H77V320.4c0,0,0.1,0,0.1,0.1l0-5.6c0,0,0,0,0,0l0-1.8c17.9,17.3,40.4,29.3,65.3,33.4
		c6,0.9,12.1,1.4,18.3,1.4l0,0c62-1.8,115.7-48,124.7-111.4c4.9-34.3-3.9-68.5-24.7-96.2c-20.8-27.7-51.2-45.7-85.4-50.6
		c-34.3-4.9-68.5,3.9-96.2,24.7c-3.4,2.5-6.6,5.2-9.7,8L32.8,93L0,133.8L24.7,153.8z M157.7,136c35.9,0,66.4,23.2,77.3,55.5
		c2.8,8.2,4.3,17,4.3,26.2c0,37.6-25.5,69.3-60.2,78.6c-6.8,1.9-14,2.8-21.4,2.8c-14,0-27.1-3.5-38.6-9.7
		c-10.4-5.5-19.5-13.2-26.7-22.9c-8.3-11-13.5-23.7-15.3-37v0c-0.6-3.9-0.9-7.8-0.9-11.9C76.2,172.5,112.7,136,157.7,136z"/>
	<polygon points="589.7,86.1 589.7,182 589.7,190.1 589.7,322.1 589.7,322.5 589.7,323 589.7,341.3 642.4,341.3 642.4,212.2 
		642.4,211.7 642.4,211.3 642.4,190.1 642.4,186.3 642.4,86.1 	"/>
</g>
</svg>
