<?xml version="1.0" encoding="utf-8"?>
<svg viewBox="11.719 26.094 364.016 28.141" xmlns="http://www.w3.org/2000/svg">
  <path d="M 18.727 50.72 L 11.727 50.72 L 11.727 26.22 L 18.727 26.22 L 18.727 33.22 L 32.727 33.22 L 32.727 36.72 L 36.227 36.72 L 36.227 50.72 L 29.227 50.72 L 29.227 36.72 L 18.727 36.72 L 18.727 50.72 ZM 64.222 50.72 L 43.222 50.72 L 43.222 47.22 L 39.722 47.22 L 39.722 43.72 L 43.222 43.72 L 43.222 40.22 L 57.222 40.22 L 57.222 36.72 L 43.222 36.72 L 43.222 33.22 L 60.722 33.22 L 60.722 36.72 L 64.222 36.72 L 64.222 50.72 Z M 46.722 43.72 L 46.722 47.22 L 57.222 47.22 L 57.222 43.72 L 46.722 43.72 ZM 92.218 50.72 L 71.218 50.72 L 71.218 47.22 L 67.718 47.22 L 67.718 36.72 L 71.218 36.72 L 71.218 33.22 L 92.218 33.22 L 92.218 36.72 L 74.718 36.72 L 74.718 47.22 L 92.218 47.22 L 92.218 50.72 ZM 102.713 50.72 L 95.713 50.72 L 95.713 26.22 L 102.713 26.22 L 102.713 40.22 L 109.713 40.22 L 109.713 36.72 L 113.213 36.72 L 113.213 33.22 L 120.213 33.22 L 120.213 36.72 L 116.713 36.72 L 116.713 40.22 L 113.213 40.22 L 113.213 43.72 L 116.713 43.72 L 116.713 47.22 L 120.213 47.22 L 120.213 50.72 L 113.213 50.72 L 113.213 47.22 L 109.713 47.22 L 109.713 43.72 L 102.713 43.72 L 102.713 50.72 ZM 144.708 50.72 L 127.208 50.72 L 127.208 47.22 L 123.708 47.22 L 123.708 36.72 L 127.208 36.72 L 127.208 33.22 L 144.708 33.22 L 144.708 36.72 L 148.208 36.72 L 148.208 43.72 L 130.708 43.72 L 130.708 47.22 L 144.708 47.22 L 144.708 50.72 Z M 130.708 36.72 L 130.708 40.22 L 141.208 40.22 L 141.208 36.72 L 130.708 36.72 ZM 162.204 33.22 L 162.204 36.72 L 165.704 36.72 L 165.704 40.22 L 162.204 40.22 L 162.204 50.72 L 155.204 50.72 L 155.204 33.22 L 162.204 33.22 Z M 165.704 33.22 L 176.204 33.22 L 176.204 36.72 L 165.704 36.72 L 165.704 33.22 ZM 197.199 50.72 L 190.199 50.72 L 190.199 36.72 L 183.199 36.72 L 183.199 33.22 L 190.199 33.22 L 190.199 26.22 L 197.199 26.22 L 197.199 33.22 L 204.199 33.22 L 204.199 36.72 L 197.199 36.72 L 197.199 50.72 ZM 232.195 50.72 L 211.195 50.72 L 211.195 47.22 L 207.695 47.22 L 207.695 43.72 L 211.195 43.72 L 211.195 40.22 L 225.195 40.22 L 225.195 36.72 L 211.195 36.72 L 211.195 33.22 L 228.695 33.22 L 228.695 36.72 L 232.195 36.72 L 232.195 50.72 Z M 214.695 43.72 L 214.695 47.22 L 225.195 47.22 L 225.195 43.72 L 214.695 43.72 ZM 256.69 50.72 L 239.19 50.72 L 239.19 47.22 L 235.69 47.22 L 235.69 26.22 L 242.69 26.22 L 242.69 33.22 L 256.69 33.22 L 256.69 36.72 L 260.19 36.72 L 260.19 47.22 L 256.69 47.22 L 256.69 50.72 Z M 242.69 36.72 L 242.69 47.22 L 253.19 47.22 L 253.19 36.72 L 242.69 36.72 ZM 277.685 50.72 L 270.685 50.72 L 270.685 43.72 L 277.685 43.72 L 277.685 50.72 ZM 316.181 50.72 L 295.181 50.72 L 295.181 47.22 L 291.681 47.22 L 291.681 36.72 L 295.181 36.72 L 295.181 33.22 L 309.181 33.22 L 309.181 26.22 L 316.181 26.22 L 316.181 50.72 Z M 298.681 36.72 L 298.681 47.22 L 309.181 47.22 L 309.181 36.72 L 298.681 36.72 ZM 340.676 50.72 L 323.176 50.72 L 323.176 47.22 L 319.676 47.22 L 319.676 36.72 L 323.176 36.72 L 323.176 33.22 L 340.676 33.22 L 340.676 36.72 L 344.176 36.72 L 344.176 43.72 L 326.676 43.72 L 326.676 47.22 L 340.676 47.22 L 340.676 50.72 Z M 326.676 36.72 L 326.676 40.22 L 337.176 40.22 L 337.176 36.72 L 326.676 36.72 ZM 365.171 50.72 L 358.171 50.72 L 358.171 47.22 L 354.671 47.22 L 354.671 43.72 L 351.171 43.72 L 351.171 33.22 L 358.171 33.22 L 358.171 43.72 L 365.171 43.72 L 365.171 33.22 L 372.171 33.22 L 372.171 43.72 L 368.671 43.72 L 368.671 47.22 L 365.171 47.22 L 365.171 50.72 Z" transform="matrix(1, 0, 0, 1, 0, 0)" style="white-space: pre;" />
</svg>